# xmcd
#
# Track frame offsets: 
#        150
#        17365
#        37665
#        50215
#        65237
#        77795
#        98260
#        109395
#        124135
#        140320
#        159970
#        175810
#        190320
#        208520
#
# Disc length: 3023 seconds
#
# Revision: 2
# Processed by: cddbd v1.5.2PL0 Copyright (c) Steve Scherf et al.
# Submitted via: ExactAudioCopy v1.0b3
#
DISCID=b50bcd0e
DTITLE=Beth Carvalho - Brasileira Da Gema
DYEAR=1996
DGENRE=Latin-Br-Samba
TTITLE0=Salve São Sebastião
TTITLE1=Se Você Soubesse
TTITLE2=Vem Sambar
TTITLE3=Perfume No Ar
TTITLE4=Saudade Que Não Se Desfaz
TTITLE5=Carioca Da Gema
TTITLE6=Sempre Mangueira
TTITLE7=Linguagem Do Morro
TTITLE8=Flores Em Vida
TTITLE9=Quando Essa Paixão Me Dominar
TTITLE10=E Fez-Se A Luz
TTITLE11=Desilusão De Amor
TTITLE12=Pranto Que chorei
TTITLE13=Vida De Compositor
EXTD=
EXTT0=
EXTT1=
EXTT2=
EXTT3=
EXTT4=
EXTT5=
EXTT6=
EXTT7=
EXTT8=
EXTT9=
EXTT10=
EXTT11=
EXTT12=
EXTT13=
PLAYORDER=
